# xmcd
#
# Track frame offsets:
#	150
#	16722
#	31155
#	47175
#	61022
#	74352
#	86882
#	99465
#	111172
#	123262
#	134325
#	146832
#	165547
#	175337
#	184195
#	194712
#	207290
#	212487
#	221910
#	230225
#
# Disc length: 3242 seconds
#
# Revision: 1
# Processed by: cddbd v1.5.1PL0 Copyright (c) Steve Scherf et al.
# Submitted via: audiograbber 1.83.01
#
DISCID=2f0ca814
DTITLE=Country - The Country Collection Disk #7
DYEAR=1900
DGENRE=Country
TTITLE0=Mele Haggard - Ramblin' Fever
TTITLE1=Mele Haggard - That's The Way Love Goes
TTITLE2=Mele Haggard - Today I Started Loving You Again
TTITLE3=Mele Haggard - Okie From Muskogee
TTITLE4=Bobby Bare - Hits Medley - 500 Miles, Four Strong Winds, Shame On Me
TTITLE5=Bobby Bare - Tequila Sheila
TTITLE6=Lynn Anderson - Rose Garden
TTITLE7=Lynn Anderson - I've Never Loved Anyone More
TTITLE8=Lynn Anderson - Where's Teh Fire
TTITLE9=Porter Wagner - Old Slewfoot
TTITLE10=Porter Wagner - I Thought I Heard You Crying My Name
TTITLE11=Porter Wagner - Sugarfoot Rag
TTITLE12=Jimmy Dean - Bill Bailey
TTITLE13=Jimmy Dean - Big Bad John
TTITLE14=Willie Nelson - I Feel Sory For him
TTITLE15=Willie Nelson - I Don't Understand
TTITLE16=Willie Nelson - The Ghost
TTITLE17=Dave Dudley - Six Days On The Road
TTITLE18=Johnny Cash - Hey Good Lookin'
TTITLE19=Michael Jones - Don't Cry Daddy
EXTD=
EXTT0=
EXTT1=
EXTT2=
EXTT3=
EXTT4=
EXTT5=
EXTT6=
EXTT7=
EXTT8=
EXTT9=
EXTT10=
EXTT11=
EXTT12=
EXTT13=
EXTT14=
EXTT15=
EXTT16=
EXTT17=
EXTT18=
EXTT19=
PLAYORDER=
